inDegrees=no
num_controls=7
num_derivatives=13
num_iterations=37
num_multipliers=7
num_parameters=0
num_slacks=7
num_states=26
objective=0.430483
objective_accelerations=0.053020
objective_balance=0.001082
objective_effort=0.014083
objective_height=0.356196
objective_ligament=0.006103
solver_duration=561.533203
status=Solve_Succeeded
success=true
DataType=double
version=3
OpenSimVersion=4.5
endheader
time	/jointset/ground_pelvis/pelvis_tilt/value	/jointset/ground_pelvis/pelvis_tx/value	/jointset/ground_pelvis/pelvis_ty/value	/jointset/hip_l/hip_flexion_l/value	/jointset/hip_l/hip_adduction_l/value	/jointset/hip_l/hip_rotation_l/value	/jointset/back/lumbar_extension/value	/jointset/patellofemoral_l/patellar_flexion_l/value	/jointset/knee_l/knee_flexion_l/value	/jointset/knee_l/knee_adduction_l/value	/jointset/knee_l/knee_rotation_l/value	/jointset/ankle_l/ankle_angle_l/value	/jointset/subtalar_l/subtalar_angle_l/value	/jointset/ground_pelvis/pelvis_tilt/speed	/jointset/ground_pelvis/pelvis_tx/speed	/jointset/ground_pelvis/pelvis_ty/speed	/jointset/hip_l/hip_flexion_l/speed	/jointset/hip_l/hip_adduction_l/speed	/jointset/hip_l/hip_rotation_l/speed	/jointset/back/lumbar_extension/speed	/jointset/patellofemoral_l/patellar_flexion_l/speed	/jointset/knee_l/knee_flexion_l/speed	/jointset/knee_l/knee_adduction_l/speed	/jointset/knee_l/knee_rotation_l/speed	/jointset/ankle_l/ankle_angle_l/speed	/jointset/subtalar_l/subtalar_angle_l/speed	/forceset/tau_hip_flexion_l	/forceset/tau_hip_adduction_l	/forceset/tau_hip_rotation_l	/forceset/tau_knee_flexion_l	/forceset/tau_ankle_angle_l	/forceset/tau_subtalar_angle_l	/forceset/tau_lumbar_extension	lambda_cid13_p0	lambda_cid13_p1	lambda_cid13_p2	lambda_cid13_p3	lambda_cid13_p4	lambda_cid13_p5	lambda_cid14_p0	/jointset/ground_pelvis/pelvis_tilt/accel	/jointset/ground_pelvis/pelvis_tx/accel	/jointset/ground_pelvis/pelvis_ty/accel	/jointset/hip_l/hip_flexion_l/accel	/jointset/hip_l/hip_adduction_l/accel	/jointset/hip_l/hip_rotation_l/accel	/jointset/back/lumbar_extension/accel	/jointset/patellofemoral_l/patellar_flexion_l/accel	/jointset/knee_l/knee_flexion_l/accel	/jointset/knee_l/knee_adduction_l/accel	/jointset/knee_l/knee_rotation_l/accel	/jointset/ankle_l/ankle_angle_l/accel	/jointset/subtalar_l/subtalar_angle_l/accel	gamma_cid13_p0	gamma_cid13_p1	gamma_cid13_p2	gamma_cid13_p3	gamma_cid13_p4	gamma_cid13_p5	gamma_cid14_p0
0.5	-0.1813821036831707	0.04490748285853516	0.7871584176207327	0.9005856197177676	-0.3673126365491811	-0.01296427506211697	-0.3962126644252975	0.9114817120414622	0.9114817120415037	-0.04755501380527206	-0.1744124196979057	0.3164245615365175	0.1594847130661624	-0.6548852604997198	-0.1531706089813439	-0.4620778327212107	2.157365517021985	0.02781358656594874	0.5233525166489115	-0.3188732932560261	1.878120026800596	1.878120026800554	0.2756296858252115	0.0004065280605584453	0.5328003742187848	0.2584207728122621	-0.09149922068586969	0.08123555283786171	0.0009890252239300682	-0.1960243228995841	0.005279019304717645	-0.02223055003359791	0.1089647701983212	-26.107282298559	18.89696431596768	-8.6291548791209	2.52792176797605	-441.9670507253186	-22.66202695616657	-6.600637203896919	0.2244225823668516	0.2837983418830528	-0.4202213562927509	-1.019708449545971	0.1032361872633655	-0.6354160539050332	1.314536858447418	-1.489917571033109	-1.489917571033119	-0.2776368043346305	0.048560738453951	-0.8517571344082593	0.08390006888005029	-4.073673737629556e-07	-1.308053126198366e-06	5.068503954784877e-06	1.252641988777583e-07	-1.097502352043384e-06	-2.061316625530299e-06	-7.074491883388658e-07
0.51	-0.187917869250019	0.04339029950566643	0.7825178110971684	0.9221034971286103	-0.3670318518269886	-0.007758683111736249	-0.399336363139554	0.9301847171863857	0.9301847171863326	-0.0448205922630296	-0.1744067561125678	0.3217083600274476	0.1620688253965325	-0.6521771833824438	-0.1502404669266073	-0.4659346919061099	2.145901050917511	0.02833847644904251	0.5177107964527048	-0.3058317836954432	1.862203629234432	1.862203629234418	0.271244541955215	0.0007027699866407318	0.5238871392032164	0.2583526715302122	-0.09560030728469911	0.08258750940538381	0.0003098427970248965	-0.198322476291183	0.004108014515383666	-0.02146232325615767	0.1121749327109878	-26.64304728034519	18.84417481042611	-8.834387900542083	2.557193254816207	-444.9185503219297	-22.62590994279771	-5.911235276988128	0.3075717578903554	0.3014917923462074	-0.35231762428912	-1.256201865268864	0.02567094880668908	-0.5374889722317209	1.304157889708985	-1.683968018081551	-1.683968018077383	-0.5205281364792782	0.01755824495481512	-0.9219875963584421	-0.05995044386603376	-3.916968574366529e-07	-9.403166066977114e-07	5.056924118036237e-06	1.703428323590018e-07	-1.060286239572878e-06	-1.735575575718851e-06	-6.820281947795354e-07
0.52	-0.1944238397493953	0.04190319150436099	0.777841856096815	0.9434974526435289	-0.3667461070939778	-0.002611296157266235	-0.4023286067812368	0.9487202649218971	0.9487202649217906	-0.04213033715094642	-0.1743986496429968	0.3269008499859816	0.1646506996706576	-0.6489262470058816	-0.1471555386686873	-0.4691475280790498	2.132581137838216	0.02880558873112053	0.5117115174663561	-0.292582278741066	1.844628544921334	1.844628544921348	0.2667963997593194	0.0008951049235004808	0.5145386677385586	0.2579731615634189	-0.09970139388360207	0.08393946597286653	-0.0003693396290504683	-0.200620629682803	0.002937009726034878	-0.02069409647879243	0.1153850952235893	-27.17403312258754	18.78041433351884	-9.026293722793689	2.548695465794482	-447.8042851390923	-22.69515556022692	-5.266161961588353	0.3329944342240015	0.3147555825198164	-0.2914167539008805	-1.390797844510298	0.09168066706027499	-0.7069278119333661	1.356135937206216	-1.821654920419728	-1.82165492041973	-0.2902364695144725	0.02777934060951215	-0.9388044242260449	0.0216183319313858	-3.745494195149815e-07	-6.244333716430667e-07	5.012491203929787e-06	2.068474382013065e-07	-1.016036239906894e-06	-1.421998574523124e-06	-6.581068828222216e-07
0.53	-0.2008947865994307	0.04044761793886952	0.7731370107198011	0.9647493811956398	-0.3664557429204311	0.002474937776622779	-0.4051873624473081	0.967072045920879	0.9670720459207798	-0.03948490197825892	-0.1743886363718737	0.3319977943943606	0.1672274911923912	-0.645180355307157	-0.1439415772422237	-0.4717092653275125	2.117513526365376	0.02926704109475073	0.5054781694584932	-0.2791511355210775	1.825461149302623	1.825461149302633	0.2622922457071857	0.00108938991556934	0.5047801381341284	0.2573396343184579	-0.1037552073271491	0.08512817292081977	-0.0009516014723557429	-0.203098173285419	0.00176818923657059	-0.0200936792365773	0.1185194965693657	-27.73230957435898	18.80673306875301	-9.246751018400904	2.639106676972208	-450.8274253211147	-22.65601551610827	-4.665175870458185	0.4077783149763946	0.3274012053579272	-0.2219084696346106	-1.608442778683953	0.02260437255125457	-0.5907210194819743	1.339261357101026	-2.004128610032038	-2.004128610032524	-0.530267631199282	0.01345253572375523	-1.004916118022881	-0.1131869284216663	-3.559098354980721e-07	-3.209640576008474e-07	4.946141984271803e-06	2.403692642490257e-07	-9.681099510142893e-07	-1.110722258479258e-06	-6.327513943385767e-07
